<svg xmlns="http://www.w3.org/2000/svg" width="160" height="40" viewBox="0 0 160 40" fill="none">
  <rect width="160" height="40" rx="6" fill="#fefce8"/>
  <rect x=".5" y=".5" width="159" height="39" rx="5.5" stroke="#ca8a04" stroke-opacity=".2"/>
  <!-- PIX -->
  <rect x="8" y="10" width="20" height="20" rx="4" fill="#00bdae" opacity=".15"/>
  <text x="11" y="24" font-family="system-ui,sans-serif" font-size="8" font-weight="800" fill="#00796b">PIX</text>
  <!-- Boleto -->
  <rect x="32" y="10" width="20" height="20" rx="4" fill="#6366f1" opacity=".12"/>
  <rect x="36" y="15" width="12" height="1.5" rx=".75" fill="#4f46e5"/>
  <rect x="36" y="18" width="8" height="1.5" rx=".75" fill="#4f46e5"/>
  <rect x="36" y="21" width="12" height="1.5" rx=".75" fill="#4f46e5"/>
  <rect x="36" y="24" width="6" height="1.5" rx=".75" fill="#4f46e5"/>
  <!-- Card -->
  <rect x="56" y="10" width="20" height="20" rx="4" fill="#f97316" opacity=".12"/>
  <rect x="59" y="14" width="14" height="10" rx="2" stroke="#ea580c" stroke-width="1.2" fill="none"/>
  <rect x="59" y="17" width="14" height="2" fill="#ea580c" opacity=".3"/>
  <text x="82" y="19" font-family="system-ui,sans-serif" font-size="8.5" font-weight="700" fill="#854d0e">Pagamento Seguro</text>
  <text x="82" y="29" font-family="system-ui,sans-serif" font-size="7" fill="#92400e" opacity=".7">Pix · Boleto · Cartão</text>
</svg>
